<svg width="129" height="18" viewBox="0 0 129 18" xmlns="http://www.w3.org/2000/svg"><g id="New-homepage-1920" fill="none" fill-rule="evenodd" transform="translate(-345 -28)"><g id="menu" fill="#FFF"><g id="Logo" transform="translate(345 28)"><path d="M16.928 10.287c-.045.474-.112.95-.198 1.422-.086.477-.201.943-.343 1.401a7.707 7.707 0 0 1-.5 1.245 4.521 4.521 0 0 1-1.03 1.387c-.424.38-.907.699-1.453.953a6.496 6.496 0 0 1-1.255.432 9.912 9.912 0 0 1-1.307.218 14.71 14.71 0 0 1-1.345.063l-1.321-.001H.707V.442h7.47c.722.001 1.456.034 2.204.101.749.07 1.462.217 2.138.445a7.01 7.01 0 0 1 1.875.967 4.91 4.91 0 0 1 1.413 1.642c.405.762.702 1.636.897 2.62.193.982.29 1.898.29 2.746.001.408-.022.848-.066 1.324zm-4.303-3.43c-.151-.737-.4-1.38-.754-1.931-.422-.65-.96-1.065-1.61-1.245a7.824 7.824 0 0 0-2.087-.27H4.447l.001 11.028h3.725c.421 0 .894-.042 1.413-.127.52-.086.964-.225 1.336-.413.386-.206.703-.51.951-.912.244-.404.438-.841.579-1.313.14-.47.243-.95.304-1.438.062-.489.093-.921.093-1.299.001-.65-.074-1.344-.224-2.08zm10.888 10.534c-.477 0-.958-.004-1.443-.014a5.95 5.95 0 0 1-1.412-.19c-.812-.203-1.43-.64-1.854-1.308a3.946 3.946 0 0 1-.634-2.151c0-.593.13-1.179.384-1.754a3.49 3.49 0 0 1 1.153-1.426c.23-.17.504-.302.82-.393.32-.093.651-.162.996-.204a10.96 10.96 0 0 1 1.02-.077c.337-.007.644-.012.929-.012h4.347l-.002-.203c.002-.441-.06-.794-.183-1.057a1.38 1.38 0 0 0-.541-.61 2.186 2.186 0 0 0-.86-.28 8.945 8.945 0 0 0-1.108-.065h-5.97V5.002h5.968c.246.001.49.002.728.012.236.009.48.013.725.012 1.09.036 2.021.255 2.792.662.77.409 1.331 1.145 1.683 2.216.14.423.223.839.25 1.244.026.41.039.833.038 1.275l.002 6.968h-7.828zm4.306-4.878l-4.692.001c-.37 0-.685.092-.942.277-.255.186-.383.472-.383.86 0 .27.057.477.172.621a.988.988 0 0 0 .45.315c.187.067.394.11.623.128.229.015.45.024.662.024l4.107-.001.003-2.225zm11.33 4.895c-.878-.002-1.67-.148-2.367-.446-.704-.297-1.22-.87-1.552-1.72a5.143 5.143 0 0 1-.263-1.235 14.818 14.818 0 0 1-.052-1.26V7.653l-2.247-.001.001-2.649h2.246V.442h3.522L38.436 5h3.275l-.001 2.65-3.273.002v4.508c-.002.272.003.61.011 1.018.01.41.103.73.279.968.158.206.36.352.607.448.247.091.51.152.791.177.283.025.563.03.845.013.284-.017.529-.025.74-.026v2.649h-2.562zm8.892-.017c-.476 0-.959-.003-1.442-.014a5.894 5.894 0 0 1-1.416-.191c-.811-.202-1.428-.639-1.85-1.31a3.954 3.954 0 0 1-.636-2.149 4.29 4.29 0 0 1 .385-1.754 3.467 3.467 0 0 1 1.153-1.425c.23-.169.504-.3.822-.393.318-.094.649-.16.993-.205.345-.04.684-.065 1.019-.075.339-.008.646-.012.929-.013l4.348.001V9.66c0-.44-.061-.793-.186-1.056a1.372 1.372 0 0 0-.54-.611 2.167 2.167 0 0 0-.858-.28 9.123 9.123 0 0 0-1.11-.064h-5.969V5.001h5.969c.246 0 .488.004.727.012.236.009.478.013.725.012 1.091.035 2.02.255 2.792.662.77.41 1.332 1.146 1.683 2.215.14.425.223.84.248 1.247.03.407.042.831.04 1.274v6.967h-7.826zm4.305-4.878h-4.692c-.37 0-.684.092-.94.277-.258.187-.384.474-.384.862 0 .27.057.477.172.62a.984.984 0 0 0 .451.314c.184.07.393.11.621.129.23.015.453.024.665.024h4.107v-2.226z" id="Fill-1"/><path d="M70.463 17.408a4.61 4.61 0 0 1-.262-1.196 31.571 31.571 0 0 0-.134-1.22c-.09-.78-.232-1.43-.436-1.945-.204-.516-.49-.93-.858-1.232-.372-.306-.837-.521-1.402-.649-.565-.127-1.25-.191-2.062-.191h-3.012l-.002 6.433h-3.74V.443h8.61c.65 0 1.315.02 1.995.063a9.552 9.552 0 0 1 1.94.318c1.04.289 1.85.831 2.43 1.63.58.795.872 1.703.873 2.72-.002 1.17-.258 2.191-.769 3.065-.51.872-1.374 1.495-2.587 1.868.385.137.716.269.99.394.272.128.513.281.726.46.212.176.397.39.558.635.156.246.314.557.471.929.248.56.386 1.136.41 1.728.028.594.076 1.188.148 1.78.052.441.158.9.315 1.375h-4.202zm-.417-12.913a1.62 1.62 0 0 0-.567-.665 2.253 2.253 0 0 0-.857-.326 5.877 5.877 0 0 0-1.08-.094l-5.247.001.001 4.596 5.246-.002c.86 0 1.527-.168 2.001-.508.477-.339.713-.972.712-1.891.001-.453-.07-.823-.209-1.111zm18.72 9.536a5.48 5.48 0 0 1-1.425 1.95 6.161 6.161 0 0 1-2.164 1.195c-.834.273-1.753.408-2.754.408-2.146.001-3.808-.565-4.986-1.693-1.178-1.128-1.767-2.73-1.767-4.801 0-.967.165-1.842.502-2.622a5.487 5.487 0 0 1 1.398-1.975c.598-.534 1.314-.946 2.15-1.235a8.336 8.336 0 0 1 2.73-.433c2.145 0 3.819.568 5.024 1.706 1.203 1.138 1.806 2.752 1.808 4.84 0 1.001-.173 1.889-.517 2.66zM85.49 9.735a3.183 3.183 0 0 0-.524-1.179 2.509 2.509 0 0 0-.985-.79c-.408-.193-.912-.29-1.507-.29-.63 0-1.15.1-1.56.302a2.46 2.46 0 0 0-.969.815c-.24.343-.404.745-.499 1.206a7.122 7.122 0 0 0-.144 1.494c-.002.518.056 1 .169 1.444.114.442.298.827.552 1.155.253.326.585.582.997.765.408.184.914.276 1.506.276.593 0 1.093-.1 1.496-.3.4-.201.726-.469.97-.804.243-.333.414-.733.51-1.193.097-.461.145-.942.147-1.444a6.44 6.44 0 0 0-.16-1.457zm18.204 4.412c-.44.95-1.16 1.732-2.161 2.343-.723.443-1.448.705-2.186.792-.74.083-1.52.126-2.345.125h-5.747V.444h3.522v4.56L97.916 5c2.025.001 3.604.515 4.736 1.542 1.134 1.028 1.704 2.526 1.704 4.496 0 1.121-.22 2.158-.66 3.108zm-3.676-5.578c-.541-.61-1.408-.916-2.6-.916h-2.64l-.001 7.104h2.64c1.14 0 1.992-.343 2.56-1.032.567-.687.854-1.548.854-2.584 0-1.102-.272-1.961-.813-2.572zm18.555 5.462a5.471 5.471 0 0 1-1.426 1.948c-.605.528-1.326.926-2.16 1.197-.835.273-1.756.41-2.758.41-2.146 0-3.808-.567-4.984-1.695-1.18-1.128-1.766-2.729-1.767-4.801 0-.968.168-1.842.5-2.622a5.528 5.528 0 0 1 1.4-1.975c.597-.534 1.314-.946 2.147-1.234a8.357 8.357 0 0 1 2.73-.434c2.147 0 3.822.569 5.026 1.706 1.204 1.139 1.805 2.75 1.806 4.839.001 1.002-.171 1.89-.514 2.661zM115.3 9.736a3.173 3.173 0 0 0-.525-1.18 2.524 2.524 0 0 0-.983-.791c-.41-.192-.913-.289-1.508-.289-.629 0-1.15.101-1.56.302a2.462 2.462 0 0 0-.97.816 3.25 3.25 0 0 0-.499 1.205 7.242 7.242 0 0 0-.143 1.493c0 .519.057 1 .168 1.444.116.443.299.828.55 1.155.255.326.588.581 1 .766.409.184.91.276 1.507.276.595 0 1.091-.098 1.494-.302.404-.2.727-.468.971-.802.244-.336.416-.733.512-1.192.093-.461.143-.942.143-1.445 0-.518-.05-1.004-.157-1.456zm10.926 7.672c-.88-.002-1.667-.15-2.37-.446-.7-.297-1.218-.87-1.55-1.72a5.054 5.054 0 0 1-.263-1.233 14.853 14.853 0 0 1-.052-1.262l.001-5.094h-2.247v-2.65h2.246l-.001-4.56h3.522v4.56L128.786 5v2.652h-3.275v4.507c0 .273.003.612.012 1.02.01.408.102.73.279.968.157.205.36.353.607.446.247.092.51.151.793.177.28.027.562.032.844.014.282-.017.528-.027.739-.026l.001 2.649h-2.56z" id="Fill-2"/></g></g></g></svg>