<svg width="60px" height="53px" viewBox="0 0 60 53" version="1.1" xmlns="http://www.w3.org/2000/svg" xmlns:xlink="http://www.w3.org/1999/xlink">
    <!-- Generator: Sketch 46.2 (44496) - http://www.bohemiancoding.com/sketch -->
    <desc>Created with Sketch.</desc>
    <defs></defs>
    <g id="Page-1" stroke="none" stroke-width="1" fill="none" fill-rule="evenodd">
        <g id="720" transform="translate(-77.000000, -1575.000000)" fill-rule="nonzero" fill="#2D8FE2">
            <g id="Group-2-Copy" transform="translate(0.000000, 1215.000000)">
                <g id="scheme" transform="translate(17.000000, 359.000000)">
                    <g id="006-tactics" transform="translate(60.000000, 1.000000)">
                        <path d="M60,10.3525799 C60,8.66517445 58.6338661,7.29238329 56.9546436,7.29238329 L30.9719222,7.29238329 L30.9719222,5.95970025 C32.1758099,5.55106634 33.0453564,4.40616216 33.0453564,3.06019656 C33.0453564,1.37279115 31.6792225,0 30,0 C28.3207775,0 26.9546436,1.37279115 26.9546436,3.06019656 C26.9546436,4.40616216 27.8241901,5.55106634 29.0280778,5.95970025 L29.0280778,7.29238329 L3.04535637,7.29238329 C1.36613391,7.29238329 0,8.66517445 0,10.3525799 C0,11.6985455 0.869546436,12.8434496 2.07343413,13.2520835 L2.07343413,49.9398034 C2.07343413,51.6272088 3.43956803,53 5.1187905,53 L54.8812095,53 C56.560432,53 57.9265659,51.6272088 57.9265659,49.9398034 L57.9265659,13.2520835 C59.1304536,12.8434496 60,11.6985455 60,10.3525799 Z M30,1.95331695 C30.6073866,1.95331695 31.1015119,2.44985012 31.1015119,3.06019656 C31.1015119,3.670543 30.6073866,4.16707617 30,4.16707617 C29.3926134,4.16707617 28.8984881,3.670543 28.8984881,3.06019656 C28.8984881,2.44985012 29.3926134,1.95331695 30,1.95331695 Z M54.8812095,51.046683 L5.1187905,51.046683 C4.51140389,51.046683 4.01727862,50.5501499 4.01727862,49.9398034 L4.01727862,13.4127764 L55.9827214,13.4127764 L55.9827214,49.9398034 C55.9827214,50.5501499 55.4885961,51.046683 54.8812095,51.046683 Z M56.9546436,11.4594595 L3.04535637,11.4594595 C2.43796976,11.4594595 1.94384449,10.9629263 1.94384449,10.3525799 C1.94384449,9.74223342 2.43796976,9.24570025 3.04535637,9.24570025 L56.9546436,9.24570025 C57.5620302,9.24570025 58.0561555,9.74223342 58.0561555,10.3525799 C58.0561555,10.9629263 57.5620302,11.4594595 56.9546436,11.4594595 Z" id="Shape"></path>
                        <path d="M22.3934773,41.2544447 L41.4686825,22.086285 L41.4686825,24.9373464 C41.4686825,25.4767224 41.9038445,25.9140049 42.4406048,25.9140049 C42.977365,25.9140049 43.412527,25.4767224 43.412527,24.9373464 L43.412527,19.7285012 C43.412527,19.1891253 42.977365,18.7518428 42.4406048,18.7518428 L37.2570194,18.7518428 C36.7202592,18.7518428 36.2850972,19.1891253 36.2850972,19.7285012 C36.2850972,20.2678771 36.7202592,20.7051597 37.2570194,20.7051597 L40.0942549,20.7051597 L21.0190497,39.8733194 C21.007905,39.8843882 20.9983153,39.8964988 20.9878186,39.9079582 C20.5794816,39.7031204 20.1194384,39.5872236 19.6328294,39.5872236 C17.9536069,39.5872236 16.587473,40.9600147 16.587473,42.6474201 C16.587473,44.3348256 17.9536069,45.7076167 19.6328294,45.7076167 C21.3120518,45.7076167 22.6781857,44.3348256 22.6781857,42.6474201 C22.6781857,42.1584398 22.562851,41.6961548 22.3590065,41.285828 C22.37054,41.2752801 22.3824622,41.2656437 22.3934773,41.2544447 Z M19.6328294,43.7542998 C19.0254428,43.7542998 18.5313175,43.2577666 18.5313175,42.6474201 C18.5313175,42.0370737 19.0254428,41.5405405 19.6328294,41.5405405 C20.240216,41.5405405 20.7343413,42.0370737 20.7343413,42.6474201 C20.7343413,43.2577666 20.240216,43.7542998 19.6328294,43.7542998 Z" id="Shape"></path>
                        <path d="M16.8721814,24.58614 C17.0619006,24.7767838 17.3107127,24.8722359 17.5593952,24.8722359 C17.8080778,24.8722359 18.0568898,24.776914 18.2466091,24.58614 L19.6328294,23.1931646 L21.0190497,24.58614 C21.2087689,24.7767838 21.457581,24.8722359 21.7062635,24.8722359 C21.954946,24.8722359 22.2037581,24.776914 22.3934773,24.58614 C22.7730454,24.2047224 22.7730454,23.5863022 22.3934773,23.2050147 L21.007257,21.8120393 L22.3934773,20.4190639 C22.7730454,20.0376462 22.7730454,19.419226 22.3934773,19.0379386 C22.0139093,18.6565209 21.3984881,18.6565209 21.0190497,19.0379386 L19.6328294,20.430914 L18.2466091,19.0379386 C17.867041,18.6565209 17.2516199,18.6565209 16.8721814,19.0379386 C16.4926134,19.4193563 16.4926134,20.0377764 16.8721814,20.4190639 L18.2584017,21.8120393 L16.8721814,23.2050147 C16.4926134,23.5863022 16.4926134,24.2048526 16.8721814,24.58614 Z" id="Shape"></path>
                        <path d="M27.2393521,24.58614 C27.4290713,24.7767838 27.6778834,24.8722359 27.9265659,24.8722359 C28.1752484,24.8722359 28.4240605,24.776914 28.6137797,24.58614 L30,23.1931646 L31.3862203,24.58614 C31.5759395,24.7767838 31.8247516,24.8722359 32.0734341,24.8722359 C32.3221166,24.8722359 32.5709287,24.776914 32.7606479,24.58614 C33.140216,24.2047224 33.140216,23.5863022 32.7606479,23.2050147 L31.3744276,21.8120393 L32.7606479,20.4190639 C33.140216,20.0376462 33.140216,19.419226 32.7606479,19.0379386 C32.3810799,18.6565209 31.7656587,18.6565209 31.3862203,19.0379386 L30,20.430914 L28.6137797,19.0379386 C28.2342117,18.6565209 27.6187905,18.6565209 27.2393521,19.0379386 C26.859784,19.4193563 26.859784,20.0377764 27.2393521,20.4190639 L28.6255724,21.8120393 L27.2393521,23.2050147 C26.859784,23.5863022 26.859784,24.2048526 27.2393521,24.58614 Z" id="Shape"></path>
                        <path d="M16.8721814,35.0038305 C17.0619006,35.1944742 17.3107127,35.2899263 17.5593952,35.2899263 C17.8080778,35.2899263 18.0568898,35.1946044 18.2466091,35.0038305 L19.6328294,33.610855 L21.0190497,35.0038305 C21.2087689,35.1944742 21.457581,35.2899263 21.7062635,35.2899263 C21.954946,35.2899263 22.2037581,35.1946044 22.3934773,35.0038305 C22.7730454,34.6224128 22.7730454,34.0039926 22.3934773,33.6227052 L21.007257,32.2297297 L22.3934773,30.8367543 C22.7730454,30.4553366 22.7730454,29.8369165 22.3934773,29.455629 C22.0139093,29.0742113 21.3984881,29.0742113 21.0190497,29.455629 L19.6328294,30.8486044 L18.2466091,29.455629 C17.867041,29.0742113 17.2516199,29.0742113 16.8721814,29.455629 C16.4926134,29.8370467 16.4926134,30.4554668 16.8721814,30.8367543 L18.2584017,32.2297297 L16.8721814,33.6227052 C16.4926134,34.0039926 16.4926134,34.622543 16.8721814,35.0038305 Z" id="Shape"></path>
                        <path d="M43.1278186,39.8733194 C42.7482505,39.4919017 42.1328294,39.4919017 41.7533909,39.8733194 L40.3671706,41.2662948 L38.9809503,39.8733194 C38.6013823,39.4919017 37.9859611,39.4919017 37.6065227,39.8733194 C37.2269546,40.2547371 37.2269546,40.8731572 37.6065227,41.2544447 L38.992743,42.6474201 L37.6065227,44.0403956 C37.2269546,44.4218133 37.2269546,45.0402334 37.6065227,45.4215209 C37.7962419,45.6121646 38.045054,45.7076167 38.2937365,45.7076167 C38.542419,45.7076167 38.7912311,45.6122948 38.9809503,45.4215209 L40.3671706,44.0285455 L41.7533909,45.4215209 C41.9431102,45.6121646 42.1919222,45.7076167 42.4406048,45.7076167 C42.6892873,45.7076167 42.9380994,45.6122948 43.1278186,45.4215209 C43.5073866,45.0401032 43.5073866,44.421683 43.1278186,44.0403956 L41.7415983,42.6474201 L43.1278186,41.2544447 C43.5073866,40.8731572 43.5073866,40.2546069 43.1278186,39.8733194 Z" id="Shape"></path>
                        <path d="M32.7606479,39.8733194 C32.3810799,39.4919017 31.7656587,39.4919017 31.3862203,39.8733194 L30,41.2662948 L28.6137797,39.8733194 C28.2342117,39.4919017 27.6187905,39.4919017 27.2393521,39.8733194 C26.859784,40.2547371 26.859784,40.8731572 27.2393521,41.2544447 L28.6255724,42.6474201 L27.2393521,44.0403956 C26.859784,44.4218133 26.859784,45.0402334 27.2393521,45.4215209 C27.4290713,45.6121646 27.6778834,45.7076167 27.9265659,45.7076167 C28.1752484,45.7076167 28.4240605,45.6122948 28.6137797,45.4215209 L30,44.0285455 L31.3862203,45.4215209 C31.5759395,45.6121646 31.8247516,45.7076167 32.0734341,45.7076167 C32.3221166,45.7076167 32.5709287,45.6122948 32.7606479,45.4215209 C33.140216,45.0401032 33.140216,44.421683 32.7606479,44.0403956 L31.3744276,42.6474201 L32.7606479,41.2544447 C33.140216,40.8731572 33.140216,40.2546069 32.7606479,39.8733194 Z" id="Shape"></path>
                        <path d="M43.1278186,29.455629 C42.7482505,29.0742113 42.1328294,29.0742113 41.7533909,29.455629 L40.3671706,30.8486044 L38.9809503,29.455629 C38.6013823,29.0742113 37.9859611,29.0742113 37.6065227,29.455629 C37.2269546,29.8370467 37.2269546,30.4554668 37.6065227,30.8367543 L38.992743,32.2297297 L37.6065227,33.6227052 C37.2269546,34.0041229 37.2269546,34.622543 37.6065227,35.0038305 C37.7962419,35.1944742 38.045054,35.2899263 38.2937365,35.2899263 C38.542419,35.2899263 38.7912311,35.1946044 38.9809503,35.0038305 L40.3671706,33.610855 L41.7533909,35.0038305 C41.9431102,35.1944742 42.1919222,35.2899263 42.4406048,35.2899263 C42.6892873,35.2899263 42.9380994,35.1946044 43.1278186,35.0038305 C43.5073866,34.6224128 43.5073866,34.0039926 43.1278186,33.6227052 L41.7415983,32.2297297 L43.1278186,30.8367543 C43.5073866,30.4554668 43.5073866,29.8369165 43.1278186,29.455629 Z" id="Shape"></path>
                    </g>
                </g>
            </g>
        </g>
    </g>
</svg>