<?xml version="1.0" encoding="UTF-8"?>
<svg width="53px" height="44px" viewBox="0 0 53 44" version="1.1" xmlns="http://www.w3.org/2000/svg" xmlns:xlink="http://www.w3.org/1999/xlink">
    <!-- Generator: Sketch 46.2 (44496) - http://www.bohemiancoding.com/sketch -->
    <title>007-people</title>
    <desc>Created with Sketch.</desc>
    <defs></defs>
    <g id="Page-1" stroke="none" stroke-width="1" fill="none" fill-rule="evenodd">
        <g id="720" transform="translate(-587.000000, -1584.000000)" fill-rule="nonzero" fill="#2D8FE2">
            <g id="Group-2-Copy" transform="translate(0.000000, 1215.000000)">
                <g id="scheme" transform="translate(17.000000, 359.000000)">
                    <g id="007-people" transform="translate(570.000000, 10.000000)">
                        <path d="M23.9124199,9.21707477 C22.2441621,7.55946729 20.0258223,6.64708411 17.6660801,6.64708411 C15.3070625,6.64708411 13.0888262,7.55946729 11.4204648,9.21635514 C9.75210352,10.873243 8.83340234,13.0762243 8.83340234,15.4198411 C8.83340234,17.7634579 9.75210352,19.9664393 11.4204648,21.6225047 C13.0888262,23.280215 15.3070625,24.1934206 17.6660801,24.1934206 C20.0258223,24.1934206 22.2441621,23.280215 23.9124199,21.6225047 C25.5807812,19.965514 26.4994824,17.7632523 26.4994824,15.4197383 C26.4994824,13.0762243 25.5807812,10.8731402 23.9124199,9.21707477 Z M22.3508867,20.0723271 C21.0997969,21.3148131 19.4354727,21.9990748 17.6660801,21.9990748 C16.2686191,21.9990748 14.9375117,21.5718224 13.8230625,20.7807477 C14.1917852,20.349486 14.1724277,19.7036729 13.7624023,19.2964673 C13.3532051,18.8900841 12.7021953,18.8700374 12.2679473,19.2362243 C11.4713945,18.1295421 11.0410801,16.807486 11.0410801,15.4197383 C11.0410801,13.662514 11.7309082,12.0103551 12.981998,10.7671495 C14.2329844,9.52466355 15.8964805,8.84040187 17.6659766,8.84040187 C19.0634375,8.84040187 20.3945449,9.26765421 21.5088906,10.0588318 C21.1408926,10.4900935 21.1603535,11.1359065 21.5695508,11.5430093 C21.9795762,11.9493925 22.6305859,11.9694393 23.0641094,11.6032523 C23.8614902,12.7100374 24.290873,14.0319907 24.290873,15.4198411 C24.2909766,17.1769626 23.6019766,18.8291215 22.3508867,20.0723271 Z" id="Shape"></path>
                        <path d="M26.2544609,6.89042056 C25.8234219,6.46234579 25.1238633,6.46234579 24.6928242,6.89042056 C24.2617852,7.31849533 24.2617852,8.01324299 24.6928242,8.44131776 C25.1246914,8.86939252 25.8234219,8.86939252 26.2544609,8.44131776 C26.6855,8.01324299 26.6855,7.31849533 26.2544609,6.89042056 Z" id="Shape"></path>
                        <path d="M20.0088457,13.0939065 C19.5769785,12.665729 18.878248,12.665729 18.447209,13.0939065 C18.0161699,13.5219813 18.0161699,14.2159065 18.447209,14.6447009 C18.878248,15.0727757 19.5769785,15.0727757 20.0088457,14.6447009 C20.4398848,14.2158037 20.4398848,13.5219813 20.0088457,13.0939065 Z" id="Shape"></path>
                        <path d="M16.8856758,16.1947757 C16.4546367,15.7667009 15.7551816,15.7667009 15.3241426,16.1947757 C14.8931035,16.6235701 14.8931035,17.3174953 15.3241426,17.7455701 C15.7551816,18.1744673 16.4546367,18.1744673 16.8856758,17.7455701 C17.3167148,17.3174953 17.3167148,16.6235701 16.8856758,16.1947757 Z" id="Shape"></path>
                        <path d="M10.6393359,22.3982617 C10.2082969,21.9700841 9.50956641,21.9700841 9.07852734,22.3982617 C8.64666016,22.8263364 8.64666016,23.5210841 9.07852734,23.9491589 C9.50956641,24.3764112 10.2082969,24.3764112 10.6393359,23.9491589 C11.0712031,23.5210841 11.0712031,22.8263364 10.6393359,22.3982617 Z" id="Shape"></path>
                        <path d="M43.0811328,11.0338224 L32.0406738,11.0338224 C31.4294141,11.0338224 30.9360586,11.5245047 30.9360586,12.1301215 C30.9360586,12.7357383 31.4294141,13.2264206 32.0406738,13.2264206 L43.0810293,13.2264206 C43.6908398,13.2264206 44.185748,12.7357383 44.185748,12.1301215 C44.185748,11.5245047 43.6908398,11.0338224 43.0811328,11.0338224 Z" id="Shape"></path>
                        <path d="M43.0616719,15.4197383 L32.0213164,15.4197383 C31.4100566,15.4197383 30.9150449,15.9104206 30.9150449,16.5160374 C30.9150449,17.1215514 31.4099531,17.6130561 32.0213164,17.6130561 L43.0616719,17.6130561 C43.6714824,17.6130561 44.1647344,17.1215514 44.1647344,16.5160374 C44.1647344,15.9105234 43.6714824,15.4197383 43.0616719,15.4197383 Z" id="Shape"></path>
                        <path d="M37.5608516,19.8056542 L32.0003027,19.8056542 C31.3905957,19.8056542 30.8956875,20.2971589 30.8956875,20.9027757 C30.8956875,21.5083925 31.3905957,21.9990748 32.0003027,21.9990748 L37.5609551,21.9990748 C38.1707656,21.9990748 38.6656738,21.5083925 38.6656738,20.9027757 C38.6656738,20.2971589 38.1706621,19.8056542 37.5608516,19.8056542 Z" id="Shape"></path>
                        <path d="M51.8960059,28.5783084 L50.7896309,28.5783084 L50.7896309,1.16476636 C50.7896309,0.559252336 50.2962754,0.0677476636 49.6865684,0.0677476636 L3.31239648,0.0677476636 C2.70258594,0.0677476636 2.20850586,0.559252336 2.20850586,1.16476636 L2.20850586,28.5783084 L1.10389063,28.5783084 C0.494080078,28.5783084 0,29.0698131 0,29.673785 C0,30.2809439 0.494080078,30.7725514 1.10389063,30.7725514 L3.31239648,30.7725514 L4.44941211,30.7725514 C4.37664063,31.1259907 4.33782227,31.4921776 4.33782227,31.868028 C4.33782227,32.6744206 4.51576563,33.438972 4.83190234,34.1297103 C3.22420117,35.5368879 2.20850586,37.5959439 2.20850586,39.886514 L2.20850586,42.8324579 C2.20850586,43.4396168 2.70258594,43.9312243 3.31239648,43.9312243 L16.5621895,43.9312243 C17.172,43.9312243 17.6660801,43.4397196 17.6660801,42.8324579 L17.6660801,39.886514 C17.6660801,37.5428972 16.6026641,35.4421028 14.9302656,34.0332804 C15.2189707,33.368243 15.3799375,32.6357664 15.3799375,31.868028 C15.3799375,31.4921776 15.3411191,31.1258879 15.2683477,30.7725514 L21.0117051,30.7725514 C20.9389336,31.1259907 20.9001152,31.4921776 20.9001152,31.868028 C20.9001152,32.6744206 21.0779551,33.438972 21.3941953,34.1297103 C19.7864941,35.5368879 18.7707988,37.5959439 18.7707988,39.886514 L18.7707988,42.8324579 C18.7707988,43.4396168 19.2648789,43.9312243 19.8746895,43.9312243 L33.1244824,43.9312243 C33.734293,43.9312243 34.2275449,43.4397196 34.2275449,42.8324579 L34.2275449,39.886514 C34.2275449,37.5428972 33.1648535,35.4421028 31.4925586,34.0332804 C31.7819883,33.368243 31.942127,32.6357664 31.942127,31.868028 C31.942127,31.4921776 31.9033086,31.1258879 31.8305371,30.7725514 L37.5738945,30.7725514 C37.501123,31.1259907 37.4623047,31.4921776 37.4623047,31.868028 C37.4623047,32.6744206 37.640248,33.438972 37.9572129,34.1297103 C36.3495117,35.5368879 35.3337129,37.5959439 35.3337129,39.886514 L35.3337129,42.8324579 C35.3337129,43.4396168 35.8270684,43.9312243 36.4367754,43.9312243 L49.6865684,43.9312243 C50.2963789,43.9312243 50.7896309,43.4397196 50.7896309,42.8324579 L50.7896309,39.886514 C50.7896309,37.5428972 49.7269395,35.4421028 48.054541,34.0332804 C48.3440742,33.368243 48.5042129,32.6357664 48.5042129,31.868028 C48.5042129,31.4921776 48.4653945,31.1258879 48.392623,30.7725514 L49.6865684,30.7725514 L51.8960059,30.7725514 C52.5041602,30.7725514 52.9989648,30.2810467 52.9989648,29.673785 C52.9989648,29.0698131 52.5041602,28.5783084 51.8960059,28.5783084 Z M15.4582988,39.886514 L15.4582988,41.7369813 L4.41628711,41.7369813 L4.41628711,39.886514 C4.41628711,38.3251308 5.07858008,36.9150748 6.13795898,35.9142804 C7.11970117,36.8057944 8.42658594,37.3518879 9.85882813,37.3518879 C11.3297852,37.3518879 12.6666895,36.7752617 13.6572305,35.8419065 C14.7628809,36.8443458 15.4582988,38.2866822 15.4582988,39.886514 Z M6.54643164,31.868028 C6.54643164,30.0529252 8.03198438,28.5783084 9.85893164,28.5783084 C11.6857754,28.5783084 13.1713281,30.0529252 13.1713281,31.868028 C13.1713281,33.6831308 11.6857754,35.1577477 9.85893164,35.1577477 C8.03208789,35.1577477 6.54643164,33.6831308 6.54643164,31.868028 Z M32.0213164,39.886514 L32.0213164,41.7369813 L20.9785801,41.7369813 L20.9785801,39.886514 C20.9785801,38.3251308 21.640873,36.9150748 22.700252,35.9142804 C23.6819941,36.8057944 24.9888789,37.3518879 26.4210176,37.3518879 C27.8920781,37.3518879 29.229707,36.7752617 30.2195234,35.8419065 C31.3258984,36.8443458 32.0213164,38.2866822 32.0213164,39.886514 Z M23.1086211,31.868028 C23.1086211,30.0529252 24.5941738,28.5783084 26.4210176,28.5783084 C28.2479648,28.5783084 29.7343457,30.0529252 29.7343457,31.868028 C29.7343457,33.6831308 28.2479648,35.1577477 26.4210176,35.1577477 C24.5941738,35.1577477 23.1086211,33.6831308 23.1086211,31.868028 Z M48.5835059,39.886514 L48.5835059,41.7369813 L37.5398379,41.7369813 L37.5398379,39.886514 C37.5398379,38.3251308 38.202959,36.9150748 39.2624414,35.9142804 C40.2441836,36.8057944 41.5510684,37.3518879 42.9840352,37.3518879 C44.4542676,37.3518879 45.791793,36.7752617 46.7817129,35.8419065 C47.8879844,36.8443458 48.5835059,38.2866822 48.5835059,39.886514 Z M39.6716387,31.868028 C39.6716387,30.0529252 41.1564668,28.5783084 42.9840352,28.5783084 C44.8100508,28.5783084 46.2964316,30.0529252 46.2964316,31.868028 C46.2964316,33.6831308 44.8100508,35.1577477 42.9840352,35.1577477 C41.1564668,35.1577477 39.6716387,33.6831308 39.6716387,31.868028 Z M48.5835059,28.5784112 L47.3962852,28.5784112 L47.3962852,28.5783084 C46.3886641,27.2482336 44.7857246,26.384271 42.9840352,26.384271 C41.1806895,26.384271 39.5778535,27.2482336 38.5685762,28.5783084 L30.8341992,28.5783084 C29.8265781,27.2482336 28.2236387,26.384271 26.4210176,26.384271 C24.6183965,26.384271 23.0156641,27.2482336 22.0071113,28.5783084 L14.2727344,28.5783084 C13.2642852,27.2482336 11.6614492,26.384271 9.85882812,26.384271 C8.05620703,26.384271 6.45337109,27.2482336 5.44492187,28.5783084 L4.41628711,28.5783084 L4.41628711,2.26116822 L48.5835059,2.26116822 L48.5835059,28.5784112 Z" id="Shape"></path>
                    </g>
                </g>
            </g>
        </g>
    </g>
</svg>