<?xml version="1.0" encoding="UTF-8"?>
<svg width="58px" height="53px" viewBox="0 0 58 53" version="1.1" xmlns="http://www.w3.org/2000/svg" xmlns:xlink="http://www.w3.org/1999/xlink">
    <!-- Generator: Sketch 46.2 (44496) - http://www.bohemiancoding.com/sketch -->
    <title>005-segment-path</title>
    <desc>Created with Sketch.</desc>
    <defs></defs>
    <g id="Page-1" stroke="none" stroke-width="1" fill="none" fill-rule="evenodd">
        <g id="720" transform="translate(-414.000000, -1574.000000)" fill-rule="nonzero" fill="#2D8FE2">
            <g id="Group-2-Copy" transform="translate(0.000000, 1215.000000)">
                <g id="scheme" transform="translate(17.000000, 359.000000)">
                    <g id="005-segment-path" transform="translate(397.000000, 0.000000)">
                        <path d="M44.4798465,15.0572217 C47.4582709,15.0572217 49.8811783,12.6412833 49.8811783,9.67171675 C49.8811783,6.70215025 47.45814,4.28621182 44.4798465,4.28621182 C41.501553,4.28621182 39.0786456,6.70215025 39.0786456,9.67171675 C39.0786456,12.6412833 41.501684,15.0572217 44.4798465,15.0572217 Z M44.4798465,6.63596552 C46.1587043,6.63596552 47.5245192,7.99777833 47.5245192,9.67171675 C47.5245192,11.3456552 46.1587043,12.707468 44.4798465,12.707468 C42.8011196,12.707468 41.4353047,11.3456552 41.4353047,9.67171675 C41.4353047,7.99777833 42.8011196,6.63596552 44.4798465,6.63596552 Z M13.6368081,37.971367 C10.6585147,37.971367 8.23560722,40.3873054 8.23560722,43.3568719 C8.23560722,46.3264384 10.6586456,48.7423768 13.6368081,48.7423768 C16.6152325,48.7423768 19.03814,46.3264384 19.03814,43.3568719 C19.03814,40.3873054 16.6151016,37.971367 13.6368081,37.971367 Z M13.6368081,46.3926232 C11.9580813,46.3926232 10.5922664,45.0308103 10.5922664,43.3568719 C10.5922664,41.6829335 11.9580813,40.3211207 13.6368081,40.3211207 C15.3156659,40.3211207 16.6814808,41.6829335 16.6814808,43.3568719 C16.6814808,45.0308103 15.3156659,46.3926232 13.6368081,46.3926232 Z M54.7709842,31.3676453 C53.3166637,27.7783966 49.7625598,25.3393522 45.8409481,25.3393522 L32.362167,25.3393522 C31.8726366,23.9293695 30.527377,22.9141453 28.9489391,22.9141453 C27.3705011,22.9141453 26.0252415,23.9293695 25.5357111,25.3393522 L12.0567991,25.3393522 C9.23862754,25.3393522 6.67144018,23.6699828 5.48289842,21.170367 C6.52454176,20.5380222 7.22145824,19.3951281 7.22145824,18.0929729 C7.22145824,16.7908177 6.52454176,15.6477931 5.48289842,15.0154483 C6.67144018,12.5159631 9.23875847,10.8464631 12.0567991,10.8464631 L34.9273905,10.8464631 C35.510009,15.5859163 39.571842,19.2678498 44.4798465,19.2678498 C49.786781,19.2678498 54.1041806,14.9629704 54.1041806,9.67158621 C54.1041806,4.38033251 49.7866501,0.075453202 44.4798465,0.075453202 C39.5717111,0.075453202 35.510009,3.7573867 34.9273905,8.49670936 L12.0567991,8.49670936 C8.13531828,8.49670936 4.58108352,10.9357537 3.12663205,14.5250025 C1.36385102,14.7616749 0,16.2715222 0,18.0931034 C0,19.9146847 1.36385102,21.4244015 3.12663205,21.6609433 C4.5809526,25.2501921 8.13518736,27.6892365 12.0567991,27.6892365 L25.5357111,27.6892365 C26.0252415,29.0992192 27.3705011,30.1144433 28.9489391,30.1144433 C30.527377,30.1144433 31.8726366,29.0992192 32.362167,27.6892365 L45.8409481,27.6892365 C48.6591196,27.6892365 51.226307,29.3586059 52.4147178,31.8582217 C51.3730745,32.4905665 50.676158,33.6334606 50.676158,34.9356158 C50.676158,36.2377709 51.3730745,37.3807956 52.4147178,38.0131404 C51.226307,40.5126256 48.6589887,42.1821256 45.8409481,42.1821256 L23.189526,42.1821256 C22.6067765,37.4426724 18.5449436,33.7607389 13.6368081,33.7607389 C8.33000451,33.7607389 4.01260497,38.0656182 4.01260497,43.3570025 C4.01260497,48.6482562 8.33000451,52.9531355 13.6368081,52.9531355 C18.5450745,52.9531355 22.6069074,49.271202 23.189526,44.5318793 L45.8409481,44.5318793 C49.7625598,44.5318793 53.3166637,42.092835 54.7709842,38.5035862 C56.5338962,38.2669138 57.8977472,36.7570665 57.8977472,34.9356158 C57.8977472,33.114165 56.5338962,31.6043177 54.7709842,31.3676453 Z M44.4798465,2.42533744 C48.4872144,2.42533744 51.7475214,5.67596059 51.7475214,9.67171675 C51.7475214,13.6674729 48.4872144,16.9182266 44.4798465,16.9182266 C40.4724786,16.9182266 37.2123025,13.6674729 37.2123025,9.67171675 C37.2123025,5.67596059 40.4724786,2.42533744 44.4798465,2.42533744 Z M3.8079684,19.3280296 C3.79827991,19.329335 3.78872235,19.3307709 3.77890293,19.3322069 C3.72391422,19.3396478 3.66774718,19.3434335 3.61066366,19.3434335 C2.91911512,19.3434335 2.35652822,18.7824951 2.35652822,18.0931034 C2.35652822,17.4035813 2.91911512,16.8426429 3.61066366,16.8426429 C3.66748533,16.8426429 3.72339052,16.8464286 3.77824831,16.8537389 C3.78832957,16.855436 3.79827991,16.8567414 3.80836117,16.8581773 C4.40616704,16.9530813 4.86453725,17.4706798 4.86453725,18.0931034 C4.86466817,18.7155271 4.40603612,19.2333867 3.8079684,19.3280296 Z M28.9489391,27.7646897 C28.2575214,27.7646897 27.6949345,27.2037512 27.6949345,26.5143596 C27.6949345,25.824968 28.2573905,25.2640296 28.9489391,25.2640296 C29.6404876,25.2640296 30.2029436,25.824968 30.2029436,26.5143596 C30.2029436,27.2037512 29.6403567,27.7646897 28.9489391,27.7646897 Z M13.6368081,50.6032512 C9.62944018,50.6032512 6.36926411,47.3526281 6.36926411,43.3568719 C6.36926411,39.3611158 9.62944018,36.1103621 13.6368081,36.1103621 C17.644307,36.1103621 20.904614,39.3611158 20.904614,43.3568719 C20.904614,47.3526281 17.644307,50.6032512 13.6368081,50.6032512 Z M54.2868217,36.1859458 C54.2301309,36.1859458 54.1742257,36.1821601 54.1194989,36.1748498 C54.1092867,36.1731527 54.0990745,36.1717167 54.0888623,36.1704113 C53.4911874,36.0753768 53.0329481,35.5577783 53.0329481,34.9354852 C53.0329481,34.312931 53.4914492,33.7953325 54.0895169,33.7005591 C54.0993363,33.6992537 54.1090248,33.6978177 54.1188442,33.6963818 C54.173833,33.6889409 54.23,33.6851552 54.2869526,33.6851552 C54.9785011,33.6851552 55.541219,34.2460936 55.541219,34.9354852 C55.541088,35.6250074 54.9783702,36.1859458 54.2868217,36.1859458 Z" id="XMLID_32_"></path>
                    </g>
                </g>
            </g>
        </g>
    </g>
</svg>