<?xml version="1.0" encoding="UTF-8"?>
<svg width="48px" height="52px" viewBox="0 0 48 52" version="1.1" xmlns="http://www.w3.org/2000/svg" xmlns:xlink="http://www.w3.org/1999/xlink">
    <!-- Generator: Sketch 46.2 (44496) - http://www.bohemiancoding.com/sketch -->
    <title>008-search-1</title>
    <desc>Created with Sketch.</desc>
    <defs></defs>
    <g id="Page-1" stroke="none" stroke-width="1" fill="none" fill-rule="evenodd">
        <g id="720" transform="translate(-253.000000, -1575.000000)" fill-rule="nonzero" fill="#2D8FE2">
            <g id="Group-2-Copy" transform="translate(0.000000, 1215.000000)">
                <g id="scheme" transform="translate(17.000000, 359.000000)">
                    <g id="008-search-1" transform="translate(236.000000, 1.000000)">
                        <path d="M46.7814318,44.8573125 L38.9087341,36.9504688 C41.0523585,33.7296172 42.2638228,30.0309141 42.4472615,26.1561016 L45.2166406,26.1561016 C45.7862715,26.1561016 46.2481043,25.6923672 46.2481043,25.1201641 C46.2481043,18.4103359 43.6464898,12.1021875 38.9222847,7.35759375 C34.1980796,2.61289844 27.9171732,0 21.2363218,0 C20.6666909,0 20.2048581,0.463734375 20.2048581,1.0359375 L20.2048581,3.81722656 C8.97231891,4.35936719 0,13.7069766 0,25.1202656 C0,36.8807969 9.52657899,46.4486953 21.2363218,46.4486953 C25.469267,46.4486953 29.5242342,45.2136953 33.0156379,42.8694297 L40.8882344,50.7761719 C41.7005627,51.5920234 42.7678243,52 43.8347825,52 C44.9018419,52 45.9690024,51.5920234 46.7814318,50.7760703 C48.4061894,49.1443672 48.4061894,46.4891172 46.7814318,44.8573125 Z M37.4184712,35.4535391 L36.1422876,34.1718203 C35.7395112,33.7672969 35.086453,33.7673984 34.6836765,34.1718203 L33.1956384,35.6663125 L31.1751829,33.6370937 C32.9175477,31.5890859 34.0451803,28.9985313 34.2671472,26.1562031 L40.3828172,26.1562031 C40.2083784,29.4799375 39.1948136,32.6571172 37.4184712,35.4535391 Z M22.2677856,2.09482812 C34.1040344,2.62264844 43.636883,12.1967422 44.1624239,24.0843281 L34.2673495,24.0843281 C33.7664828,17.6697422 28.6546698,12.5358594 22.2677856,12.0327188 L22.2677856,2.09482812 Z M22.2677856,14.1129219 C27.5163181,14.6050938 31.7060834,18.8130313 32.1961298,24.0842266 L22.2677856,24.0842266 L22.2677856,14.1129219 L22.2677856,14.1129219 Z M21.2363218,26.1561016 L32.1969388,26.1561016 C31.6750384,31.7684453 26.9585187,36.1764609 21.2363218,36.1764609 C15.1661576,36.1764609 10.2278732,31.2166563 10.2278732,25.1202656 C10.2278732,19.37325 14.6167515,14.6362734 20.2049592,14.1122109 L20.2049592,25.1202656 C20.2049592,25.6922656 20.6666909,26.1561016 21.2363218,26.1561016 Z M30.248888,40.0905781 L31.5254761,41.3727031 C28.4531299,43.3415938 24.9195575,44.3769219 21.2363218,44.3769219 C10.6640206,44.3769219 2.06282638,35.7384219 2.06282638,25.1202656 C2.06282638,14.8494531 10.1100639,6.4309375 20.2049592,5.89103125 L20.2049592,12.0330234 C13.4776919,12.562875 8.16504684,18.2300625 8.16504684,25.1202656 C8.16504684,32.3591328 14.0288172,38.2482344 21.2363218,38.2482344 C24.4696573,38.2482344 27.4319807,37.0624922 29.7163696,35.1020313 L31.7368251,37.13125 L30.248888,38.6256406 C30.0555391,38.8198281 29.946831,39.0833828 29.946831,39.3581094 C29.946831,39.6328359 30.0555391,39.8963906 30.248888,40.0905781 Z M45.3228207,49.3111328 C44.5025036,50.1352109 43.1674659,50.1353125 42.3469466,49.3111328 L32.4368047,39.3580078 L35.4127798,36.369125 L45.3228207,46.3221484 C46.1432388,47.1463281 46.1432388,48.4871563 45.3228207,49.3111328 Z" id="Shape"></path>
                        <path d="M18.9371476,16.7344608 C18.7401625,16.1562931 18.1397634,15.8575495 17.5961298,16.0667901 C15.1877587,16.9944562 13.1840334,18.9439849 12.0986138,21.4153599 C11.8538965,21.9724616 12.0803421,22.6350023 12.6041644,22.8951068 C12.7474636,22.9662726 12.8981536,23 13.0464826,23 C13.4405554,23 13.817999,22.7621621 13.9957885,22.3575429 C14.8475771,20.4178377 16.4197624,18.8879909 18.3091357,18.1603968 C18.8529747,17.9509379 19.13403,17.3125194 18.9371476,16.7344608 Z" id="Shape"></path>
                        <path d="M13.0906215,23.003694 C12.5472462,22.9536617 12.0718049,23.4177583 12.0288381,24.037916 C12.0096772,24.3143639 12,24.5954505 12,24.8734446 C12,25.4955903 12.4418614,26 12.9870754,26 C13.5321926,26 13.9741507,25.4957008 13.9741507,24.8734446 C13.9741507,24.654429 13.9818925,24.433094 13.9968922,24.2155142 C14.0397622,23.595246 13.6340936,23.0526218 13.0906215,23.003694 Z" id="Shape"></path>
                    </g>
                </g>
            </g>
        </g>
    </g>
</svg>